<?xml version="1.0" encoding="utf-8"?>
<!-- Generator: Adobe Illustrator 23.0.6, SVG Export Plug-In . SVG Version: 6.00 Build 0)  -->
<svg version="1.1" id="Layer_1" xmlns="http://www.w3.org/2000/svg" xmlns:xlink="http://www.w3.org/1999/xlink" x="0px" y="0px"
	 viewBox="0 0 1920 1080" style="enable-background:new 0 0 1920 1080;" xml:space="preserve">
<style type="text/css">
	.st0{fill:none;stroke:#FF0000;stroke-miterlimit:10;}
</style>
<path class="st0" d="M155.14,453.57"/>
<path class="st0" d="M155.14,453.57"/>
<path class="st0" d="M160.52,453.57"/>
<path class="st0" d="M190.64,109.07c0,0-21.62-36-34-36c-12,0-32,36-32,36h18v9h-21c-15,34-13,40-13,40h20v11h-22c-1,4-3,36-3,36h26
	l-1,11h-22c-3,15,2,34,2,34h21l-2,11h-20l6,37h22v11h-23l11,38h19v10h-20c-62,17-16,223-16,223h14c0,0-1-124,4-136c5-12,21-13,21-13
	l7,22v-189h10v189l7-22c0,0,16,1,21,13s4,136,4,136h14c0,0,46-206-16-223h-20v-10h19l11-38h-23v-11h22l6-37h-20l-2-11h21
	c0,0,5-19,2-34h-22l-1-11h26c0,0-2-32-3-36h-22v-11h20c0,0,2-6-13-40h-21v-9H190.64"/>
<path class="st0" d="M297.55,203.07h-10l-8,21c-35,0-21-151-21-151h-14c-50,241,15,226,15,226c-59,243,28,281,28,281L287.5,359.5
	l10-0.43v221c0,0,88.14-38,29.14-281c0,0,65,15,15-226h-14c0,0,14,151-21,151l-8-21h-10"/>
<g>
	<path class="st0" d="M475.64,211.07c0,26.6-18.79,48.36-45,49.9v-44.9h24l0.5-9h-24.5v-45.9
		C456.85,162.71,475.64,184.47,475.64,211.07"/>
	<path class="st0" d="M375.64,211.07c0,26.6,18.79,48.36,45,49.9v-44.9h-24l-0.5-9h24.5v-45.9
		C394.43,162.71,375.64,184.47,375.64,211.07"/>
	<path class="st0" d="M428.64,161.17"/>
</g>
<g>
	<path class="st0" d="M452.14,327.32c0,27.53-19.52,50.05-46.65,51.65v-46.54h24.91l0.52-9.18H405.5v-47.58
		C432.62,277.27,452.14,299.79,452.14,327.32"/>
	<path class="st0" d="M348.64,327.32c0,27.53,19.52,50.05,46.64,51.65v-46.54h-24.91l-0.52-9.18h25.43v-47.58
		C368.16,277.27,348.64,299.79,348.64,327.32"/>
	<path class="st0" d="M403.5,275.67"/>
</g>
<g>
	<path class="st0" d="M460.74,522.62c0,26.62-18.81,48.41-45.04,49.95v-44.94h24.02l0.5-9h-24.52v-45.94
		C441.93,474.21,460.74,495.99,460.74,522.62"/>
	<path class="st0" d="M360.64,522.62c0,26.62,18.81,48.41,45.04,49.95v-44.94h-24.02l-0.5-9h24.52v-45.94
		C379.45,474.21,360.64,495.99,360.64,522.62"/>
	<path class="st0" d="M413.69,472.67"/>
</g>
<g>
	<path class="st0" d="M500.82,422.57c0,23.45-16.33,42.64-39.44,44l0.27-38.5h17v-9l-17.27-0.26v-40.24
		C484.49,379.92,500.82,399.11,500.82,422.57"/>
	<path class="st0" d="M412.64,422.57c0,23.45,16.33,42.64,39.44,44l-0.44-38.5h-18v-9l18.44-0.26v-40.24
		C428.97,379.92,412.64,399.11,412.64,422.57"/>
	<path class="st0" d="M459.38,378.57"/>
</g>
<g>
	<path class="st0" d="M509.78,126.07c0,18.39-12.37,33.44-30.49,34.5l0.36-29.5h11v-9h-11l-0.36-30.5
		C497.41,92.63,509.78,107.67,509.78,126.07"/>
	<path class="st0" d="M440.64,126.07c0,18.39,12.37,33.44,30.49,34.5l-0.49-29.5h-12v-9h12l0.49-30.5
		C453.02,92.63,440.64,107.67,440.64,126.07"/>
	<path class="st0" d="M477.29,91.57"/>
</g>
<g>
	<path class="st0" d="M425.14,113.38c0,17.16-11.41,31.19-28.32,32.19l-0.18-26.5h12v-10h-12l0.18-27.87
		C413.73,82.19,425.14,96.22,425.14,113.38"/>
	<path class="st0" d="M360.64,113.38c0,17.16,11.41,31.19,28.32,32.19l-0.32-26.5h-11v-10h11l0.32-27.87
		C372.05,82.19,360.64,96.22,360.64,113.38"/>
	<path class="st0" d="M394.83,81.19"/>
</g>
</svg>
